<svg xmlns="http://www.w3.org/2000/svg" viewBox="0 0 1600 1000" fill="none">
  <defs>
    <linearGradient id="bg" x1="800" y1="60" x2="800" y2="940" gradientUnits="userSpaceOnUse">
      <stop stop-color="#EEF3EE"/>
      <stop offset="1" stop-color="#D8E0D8"/>
    </linearGradient>
    <linearGradient id="floor" x1="784" y1="360" x2="930" y2="920" gradientUnits="userSpaceOnUse">
      <stop stop-color="#BFC5C6"/>
      <stop offset="1" stop-color="#91989C"/>
    </linearGradient>
    <linearGradient id="rack" x1="48" y1="110" x2="408" y2="610" gradientUnits="userSpaceOnUse">
      <stop stop-color="#2958BC"/>
      <stop offset="1" stop-color="#203E84"/>
    </linearGradient>
    <linearGradient id="box" x1="0" y1="0" x2="1" y2="1">
      <stop stop-color="#D8B489"/>
      <stop offset="1" stop-color="#A4794E"/>
    </linearGradient>
    <linearGradient id="green" x1="0" y1="0" x2="1" y2="1">
      <stop stop-color="#A8E232"/>
      <stop offset="1" stop-color="#4C8B29"/>
    </linearGradient>
    <linearGradient id="blueGlow" x1="0" y1="0" x2="1" y2="1">
      <stop stop-color="#DDF9FF" stop-opacity=".95"/>
      <stop offset=".45" stop-color="#98F2FF" stop-opacity=".72"/>
      <stop offset="1" stop-color="#68CCFF" stop-opacity=".1"/>
    </linearGradient>
    <filter id="blur" x="-20%" y="-20%" width="140%" height="140%">
      <feGaussianBlur stdDeviation="8"/>
    </filter>
  </defs>

  <rect width="1600" height="1000" fill="url(#bg)"/>
  <rect y="160" width="1600" height="260" fill="#E6E7E2"/>
  <path d="M0 428H1600V1000H0V428Z" fill="url(#floor)"/>
  <path d="M0 1000L540 544H1600V1000H0Z" fill="#A1A9AE" fill-opacity=".38"/>

  <g opacity=".9">
    <path d="M250 480L880 864" stroke="#9DF070" stroke-width="6" stroke-linecap="round" stroke-dasharray="6 16"/>
    <path d="M990 480L874 866" stroke="#F46D6D" stroke-width="6" stroke-linecap="round" stroke-dasharray="6 16"/>
    <path d="M786 528L1536 862" stroke="#9DF070" stroke-width="6" stroke-linecap="round" stroke-dasharray="6 16"/>
    <path d="M896 852L1586 852" stroke="#F86464" stroke-width="6" stroke-linecap="round" stroke-dasharray="6 16"/>
    <path d="M42 920L1600 920" stroke="#9DF070" stroke-width="6" stroke-linecap="round" stroke-dasharray="6 16"/>
  </g>

  <g>
    <rect x="0" y="82" width="392" height="560" fill="#EFE6D2"/>
    <g stroke="url(#rack)" stroke-width="8">
      <path d="M46 108V642"/>
      <path d="M104 108V642"/>
      <path d="M162 108V642"/>
      <path d="M220 108V642"/>
      <path d="M278 108V642"/>
      <path d="M336 108V642"/>
      <path d="M18 154H392"/>
      <path d="M18 250H392"/>
      <path d="M18 346H392"/>
      <path d="M18 442H392"/>
      <path d="M18 538H392"/>
      <path d="M18 634H392"/>
      <path d="M42 108L102 154"/>
      <path d="M162 108L222 154"/>
      <path d="M282 108L342 154"/>
      <path d="M42 250L102 346"/>
      <path d="M162 250L222 346"/>
      <path d="M282 250L342 346"/>
      <path d="M42 442L102 538"/>
      <path d="M162 442L222 538"/>
      <path d="M282 442L342 538"/>
    </g>
    <g>
      <rect x="26" y="122" width="64" height="70" rx="4" fill="url(#box)"/>
      <rect x="116" y="122" width="64" height="70" rx="4" fill="url(#box)"/>
      <rect x="206" y="122" width="64" height="70" rx="4" fill="url(#box)"/>
      <rect x="296" y="122" width="64" height="70" rx="4" fill="url(#box)"/>
      <rect x="26" y="218" width="64" height="70" rx="4" fill="url(#box)"/>
      <rect x="116" y="218" width="64" height="70" rx="4" fill="url(#box)"/>
      <rect x="206" y="218" width="64" height="70" rx="4" fill="url(#box)"/>
      <rect x="296" y="218" width="64" height="70" rx="4" fill="url(#box)"/>
      <rect x="26" y="314" width="64" height="70" rx="4" fill="url(#box)"/>
      <rect x="116" y="314" width="64" height="70" rx="4" fill="url(#box)"/>
      <rect x="206" y="314" width="64" height="70" rx="4" fill="url(#box)"/>
      <rect x="296" y="314" width="64" height="70" rx="4" fill="url(#box)"/>
      <rect x="26" y="410" width="64" height="70" rx="4" fill="url(#box)"/>
      <rect x="116" y="410" width="64" height="70" rx="4" fill="url(#box)"/>
      <rect x="206" y="410" width="64" height="70" rx="4" fill="url(#box)"/>
      <rect x="296" y="410" width="64" height="70" rx="4" fill="url(#box)"/>
      <rect x="26" y="506" width="64" height="70" rx="4" fill="url(#box)"/>
      <rect x="116" y="506" width="64" height="70" rx="4" fill="url(#box)"/>
      <rect x="206" y="506" width="64" height="70" rx="4" fill="url(#box)"/>
      <rect x="296" y="506" width="64" height="70" rx="4" fill="url(#box)"/>
    </g>
  </g>

  <g opacity=".88">
    <rect x="885" y="108" width="356" height="178" rx="18" fill="#FFFFFF" fill-opacity=".16" stroke="#CFEFFF" stroke-opacity=".46"/>
    <path d="M918 244H1200" stroke="#CFF6FF" stroke-opacity=".42" stroke-width="4"/>
    <path d="M936 230L980 188L1018 202L1060 156L1106 180L1152 126L1202 170" stroke="#A8F3FF" stroke-width="6" stroke-linecap="round" stroke-linejoin="round"/>
    <path d="M930 194H1176" stroke="#7CE2FF" stroke-opacity=".12" stroke-width="2"/>
    <path d="M930 214H1176" stroke="#7CE2FF" stroke-opacity=".12" stroke-width="2"/>
    <path d="M930 174H1176" stroke="#7CE2FF" stroke-opacity=".12" stroke-width="2"/>
  </g>
  <g opacity=".76">
    <rect x="1196" y="168" width="264" height="122" rx="18" fill="#FFFFFF" fill-opacity=".14" stroke="#CFEFFF" stroke-opacity=".32"/>
    <path d="M1226 258H1428" stroke="#D5FAFF" stroke-opacity=".36" stroke-width="4"/>
    <rect x="1240" y="232" width="18" height="26" rx="5" fill="#7CE2FF" fill-opacity=".54"/>
    <rect x="1272" y="212" width="18" height="46" rx="5" fill="#7CE2FF" fill-opacity=".54"/>
    <rect x="1304" y="226" width="18" height="32" rx="5" fill="#7CE2FF" fill-opacity=".54"/>
    <rect x="1336" y="198" width="18" height="60" rx="5" fill="#7CE2FF" fill-opacity=".54"/>
    <rect x="1368" y="176" width="18" height="82" rx="5" fill="#7CE2FF" fill-opacity=".54"/>
  </g>

  <g>
    <rect x="458" y="566" width="148" height="32" rx="10" fill="#50585E"/>
    <rect x="474" y="548" width="118" height="44" rx="14" fill="url(#green)"/>
    <rect x="490" y="506" width="86" height="54" rx="6" fill="#536AC3"/>
    <rect x="502" y="488" width="28" height="24" rx="4" fill="url(#box)"/>
    <rect x="532" y="488" width="28" height="24" rx="4" fill="url(#box)"/>
    <rect x="842" y="624" width="152" height="32" rx="10" fill="#50585E"/>
    <rect x="860" y="608" width="120" height="42" rx="14" fill="url(#green)"/>
    <rect x="874" y="554" width="92" height="66" rx="8" fill="url(#box)"/>
    <rect x="1034" y="862" width="148" height="32" rx="10" fill="#50585E"/>
    <rect x="1050" y="844" width="118" height="44" rx="14" fill="url(#green)"/>
    <rect x="1064" y="800" width="88" height="58" rx="8" fill="#536AC3"/>
    <rect x="1076" y="786" width="28" height="22" rx="4" fill="url(#box)"/>
    <rect x="1106" y="786" width="28" height="22" rx="4" fill="url(#box)"/>
  </g>

  <g>
    <ellipse cx="1122" cy="676" rx="176" ry="20" fill="#7C878C" fill-opacity=".34"/>
    <path d="M936 650H1222" stroke="#788287" stroke-width="12" stroke-linecap="round"/>
    <path d="M950 614C1048 614 1124 614 1210 614" stroke="#8A959A" stroke-width="74" stroke-linecap="round"/>
    <path d="M1206 612C1270 612 1294 582 1294 548" stroke="#8A959A" stroke-width="72" stroke-linecap="round"/>
    <path d="M1288 548C1288 514 1266 492 1236 492" stroke="#8A959A" stroke-width="72" stroke-linecap="round"/>
    <path d="M1236 492H982" stroke="#8A959A" stroke-width="72" stroke-linecap="round"/>
    <path d="M948 614H1222" stroke="#2E3E41" stroke-width="8" stroke-dasharray="12 16" stroke-linecap="round"/>
    <path d="M1228 492H990" stroke="#2E3E41" stroke-width="8" stroke-dasharray="12 16" stroke-linecap="round"/>
    <path d="M1288 558C1288 526 1268 502 1236 492" stroke="#2E3E41" stroke-width="8" stroke-dasharray="12 16" stroke-linecap="round"/>
    <rect x="1164" y="560" width="56" height="40" rx="6" fill="url(#box)"/>
    <rect x="1048" y="476" width="52" height="40" rx="6" fill="url(#box)"/>
    <rect x="1362" y="720" width="58" height="42" rx="6" fill="url(#box)"/>
  </g>

  <g>
    <rect x="664" y="402" width="162" height="90" rx="18" fill="#E9EEEB"/>
    <rect x="676" y="420" width="138" height="24" rx="8" fill="#7A8388"/>
    <rect x="690" y="448" width="32" height="20" rx="5" fill="#E0A93C"/>
    <rect x="732" y="448" width="32" height="20" rx="5" fill="#A7B2B6"/>
    <rect x="778" y="448" width="18" height="20" rx="4" fill="#77D9FF"/>
    <rect x="692" y="360" width="10" height="42" rx="5" fill="#4D738E"/>
    <rect x="808" y="360" width="10" height="42" rx="5" fill="#4D738E"/>
    <path d="M660 492H836" stroke="#A9B3B7" stroke-width="6"/>
  </g>

  <g>
    <rect x="1392" y="292" width="170" height="144" rx="14" fill="#D4D8D9" stroke="#949A9E" stroke-width="6"/>
    <rect x="1404" y="304" width="146" height="116" rx="10" fill="#AAB5C0"/>
    <rect x="1462" y="428" width="34" height="20" rx="5" fill="#50585E"/>
    <circle cx="1434" cy="438" r="20" fill="#34383B"/>
    <circle cx="1520" cy="438" r="20" fill="#34383B"/>
    <rect x="1444" y="330" width="68" height="54" rx="6" fill="url(#box)"/>
    <rect x="1560" y="292" width="26" height="152" rx="8" fill="#C7B20F"/>
    <rect x="1566" y="292" width="14" height="152" rx="6" fill="#1A1B1C"/>
    <rect x="1468" y="146" width="108" height="58" rx="12" fill="#A7AAAF"/>
  </g>
  <g>
    <rect x="1348" y="270" width="170" height="144" rx="14" fill="#D4D8D9" stroke="#949A9E" stroke-width="6"/>
    <rect x="1360" y="282" width="146" height="116" rx="10" fill="#AAB5C0"/>
    <rect x="1420" y="308" width="68" height="54" rx="6" fill="url(#box)"/>
    <rect x="1388" y="408" width="34" height="20" rx="5" fill="#50585E"/>
    <circle cx="1398" cy="418" r="20" fill="#34383B"/>
    <circle cx="1488" cy="418" r="20" fill="#34383B"/>
  </g>

  <g>
    <path d="M446 472C430 426 424 400 432 372C438 350 450 334 466 320" stroke="#79C72D" stroke-width="16" stroke-linecap="round"/>
    <path d="M468 320C506 314 538 336 548 370C554 390 548 412 532 436" stroke="#79C72D" stroke-width="16" stroke-linecap="round"/>
    <circle cx="436" cy="482" r="22" fill="#384248"/>
    <circle cx="518" cy="442" r="18" fill="#384248"/>
    <circle cx="560" cy="378" r="18" fill="#384248"/>
    <circle cx="468" cy="320" r="16" fill="#79C72D"/>
    <path d="M302 586C344 572 380 564 420 564" stroke="#79C72D" stroke-width="16" stroke-linecap="round"/>
    <path d="M420 564C472 564 504 532 514 494" stroke="#79C72D" stroke-width="16" stroke-linecap="round"/>
    <circle cx="288" cy="590" r="24" fill="#384248"/>
    <circle cx="510" cy="490" r="18" fill="#384248"/>
  </g>

  <g fill="#3A4A57">
    <circle cx="1126" cy="514" r="18"/>
    <rect x="1114" y="530" width="24" height="76" rx="12"/>
    <rect x="1090" y="548" width="24" height="70" rx="12" transform="rotate(14 1090 548)"/>
    <rect x="1138" y="548" width="24" height="66" rx="12" transform="rotate(-12 1138 548)"/>
    <rect x="1102" y="602" width="24" height="82" rx="12" transform="rotate(8 1102 602)"/>
    <rect x="1134" y="602" width="24" height="84" rx="12" transform="rotate(-3 1134 602)"/>
  </g>
  <g fill="#F1B04F">
    <path d="M1100 528H1152L1142 584H1110Z"/>
    <rect x="1112" y="506" width="30" height="12" rx="6"/>
    <rect x="1108" y="496" width="38" height="16" rx="8" fill="#E0C21E"/>
  </g>
  <rect x="1116" y="600" width="68" height="48" rx="8" fill="#DCE7EF" stroke="#79C9FF" stroke-width="4"/>
  <rect x="1126" y="610" width="48" height="28" rx="5" fill="#567B9F"/>
  <rect x="1098" y="650" width="26" height="14" rx="5" fill="#79C9FF" fill-opacity=".6"/>
  <path d="M1184 640C1200 632 1210 620 1212 602" stroke="#79E9FF" stroke-width="8" stroke-linecap="round"/>

  <g fill="#3A4A57">
    <circle cx="834" cy="370" r="14"/>
    <rect x="824" y="382" width="20" height="62" rx="10"/>
    <rect x="806" y="396" width="18" height="48" rx="9" transform="rotate(12 806 396)"/>
    <rect x="844" y="396" width="18" height="46" rx="9" transform="rotate(-16 844 396)"/>
    <rect x="816" y="438" width="18" height="54" rx="9" transform="rotate(6 816 438)"/>
    <rect x="840" y="438" width="18" height="56" rx="9" transform="rotate(-4 840 438)"/>
  </g>
  <g fill="#F1B04F">
    <path d="M814 380H854L848 418H820Z"/>
    <rect x="820" y="360" width="28" height="10" rx="5"/>
    <rect x="816" y="350" width="36" height="14" rx="7" fill="#E0C21E"/>
  </g>

  <g fill="#3A4A57">
    <circle cx="772" cy="386" r="14"/>
    <rect x="762" y="398" width="20" height="60" rx="10"/>
    <rect x="746" y="412" width="18" height="44" rx="9" transform="rotate(12 746 412)"/>
    <rect x="780" y="412" width="18" height="40" rx="9" transform="rotate(-14 780 412)"/>
    <rect x="754" y="454" width="18" height="52" rx="9" transform="rotate(8 754 454)"/>
    <rect x="778" y="454" width="18" height="52" rx="9" transform="rotate(-4 778 454)"/>
  </g>
  <g fill="#F1B04F">
    <path d="M752 396H792L786 432H758Z"/>
    <rect x="758" y="376" width="28" height="10" rx="5"/>
    <rect x="754" y="366" width="36" height="14" rx="7" fill="#E0C21E"/>
  </g>

  <g>
    <ellipse cx="280" cy="882" rx="132" ry="38" fill="#8F979A" fill-opacity=".4"/>
    <path d="M196 820C242 764 326 754 390 798C430 826 446 880 420 930" fill="#8B6D62"/>
    <path d="M228 806C262 770 318 768 354 800C382 824 388 868 372 904" stroke="#B8A39C" stroke-width="14" stroke-linecap="round"/>
    <rect x="170" y="830" width="122" height="164" rx="62" fill="#84695D"/>
    <path d="M170 924C190 894 234 876 278 884C316 892 352 918 364 958V1000H170V924Z" fill="#D7E14D"/>
    <path d="M194 924C220 906 244 900 266 902C294 904 320 914 344 936" stroke="#506377" stroke-width="22" stroke-linecap="round"/>
    <path d="M286 824L414 878" stroke="#DCEAF2" stroke-opacity=".36" stroke-width="8" stroke-linecap="round"/>
    <g>
      <path d="M466 766H686C700 766 712 778 712 792V938C712 952 700 964 686 964H466C452 964 440 952 440 938V792C440 778 452 766 466 766Z" fill="#3C424C"/>
      <path d="M458 758H694C708 758 720 770 720 784V930C720 944 708 956 694 956H458C444 956 432 944 432 930V784C432 770 444 758 458 758Z" fill="#252C34" stroke="#D9E7F0" stroke-opacity=".5" stroke-width="4"/>
      <rect x="450" y="776" width="252" height="162" rx="12" fill="#2A3038"/>
      <path d="M474 822L528 882L576 834L626 876" stroke="#7DDFF8" stroke-width="6" stroke-linecap="round" stroke-linejoin="round"/>
      <path d="M474 844H680" stroke="#4D5967" stroke-width="2"/>
      <path d="M474 876H680" stroke="#4D5967" stroke-width="2"/>
      <path d="M474 908H680" stroke="#4D5967" stroke-width="2"/>
      <rect x="590" y="812" width="14" height="76" rx="4" fill="#79C9FF"/>
      <rect x="614" y="796" width="14" height="92" rx="4" fill="#A5E44B"/>
      <rect x="638" y="830" width="14" height="58" rx="4" fill="#79C9FF"/>
    </g>
  </g>

  <g filter="url(#blur)">
    <path d="M418 434C562 430 678 440 820 458C920 470 1004 478 1108 514" stroke="url(#blueGlow)" stroke-width="18" stroke-linecap="round"/>
    <path d="M510 568C666 572 770 584 876 628C948 658 1024 724 1096 806" stroke="url(#blueGlow)" stroke-width="18" stroke-linecap="round"/>
    <path d="M306 594C478 598 612 612 726 650C814 680 884 736 954 832" stroke="url(#blueGlow)" stroke-width="18" stroke-linecap="round"/>
    <path d="M1016 632C1022 676 1050 730 1120 834" stroke="url(#blueGlow)" stroke-width="16" stroke-linecap="round"/>
    <path d="M1164 640C1260 676 1360 730 1538 856" stroke="url(#blueGlow)" stroke-width="18" stroke-linecap="round"/>
  </g>
  <g opacity=".92">
    <path d="M416 434C560 430 676 440 818 458C918 470 1002 478 1106 514" stroke="#B7F8FF" stroke-width="6" stroke-linecap="round"/>
    <path d="M508 568C664 572 768 584 874 628C946 658 1022 724 1094 806" stroke="#B7F8FF" stroke-width="6" stroke-linecap="round"/>
    <path d="M304 594C476 598 610 612 724 650C812 680 882 736 952 832" stroke="#B7F8FF" stroke-width="6" stroke-linecap="round"/>
    <path d="M1014 632C1020 676 1048 730 1118 834" stroke="#B7F8FF" stroke-width="5" stroke-linecap="round"/>
    <path d="M1162 640C1258 676 1358 730 1536 856" stroke="#B7F8FF" stroke-width="6" stroke-linecap="round"/>
  </g>
</svg>
