<svg xmlns="http://www.w3.org/2000/svg" viewBox="0 0 1200 900" fill="none">
  <defs>
    <linearGradient id="skuA" x1="300" y1="160" x2="900" y2="680" gradientUnits="userSpaceOnUse">
      <stop stop-color="#79BF64" stop-opacity=".24"/>
      <stop offset="1" stop-color="#2F7DE1" stop-opacity=".12"/>
    </linearGradient>
  </defs>
  <rect x="300" y="170" width="550" height="370" rx="46" fill="url(#skuA)" stroke="#1F6A4F" stroke-opacity=".16" stroke-width="8"/>
  <rect x="338" y="212" width="190" height="132" rx="26" fill="#F7FBF7" fill-opacity=".16"/>
  <path d="M374 254H492" stroke="#1F6A4F" stroke-opacity=".3" stroke-width="14" stroke-linecap="round"/>
  <path d="M374 292H462" stroke="#79BF64" stroke-opacity=".72" stroke-width="14" stroke-linecap="round"/>
  <rect x="570" y="216" width="224" height="124" rx="28" fill="#F7FBF7" fill-opacity=".1"/>
  <path d="M612 254H744" stroke="#1F6A4F" stroke-opacity=".26" stroke-width="14" stroke-linecap="round"/>
  <path d="M612 294H702" stroke="#D4EA72" stroke-opacity=".76" stroke-width="14" stroke-linecap="round"/>
  <g stroke="#1F6A4F" stroke-opacity=".28" stroke-width="10" stroke-linejoin="round">
    <path d="M366 416L484 352L604 416L484 478Z" fill="#79BF64" fill-opacity=".18"/>
    <path d="M484 478V594"/>
    <path d="M604 416V532L484 594"/>
    <path d="M366 416V532L484 594"/>
  </g>
  <g stroke="#1F6A4F" stroke-opacity=".28" stroke-width="10" stroke-linejoin="round">
    <path d="M610 430L712 378L814 430L712 482Z" fill="#D4EA72" fill-opacity=".18"/>
    <path d="M712 482V580"/>
    <path d="M814 430V528L712 580"/>
    <path d="M610 430V528L712 580"/>
  </g>
  <circle cx="858" cy="252" r="48" fill="#2F7DE1" fill-opacity=".14"/>
  <path d="M836 252H880" stroke="#2F7DE1" stroke-opacity=".46" stroke-width="10" stroke-linecap="round"/>
  <path d="M858 230V274" stroke="#2F7DE1" stroke-opacity=".46" stroke-width="10" stroke-linecap="round"/>
</svg>
